<svg width="28" height="30" viewBox="0 0 28 30" fill="none" xmlns="http://www.w3.org/2000/svg">
<g filter="url(#filter0_d_27_112)">
<path fill-rule="evenodd" clip-rule="evenodd" d="M10.5214 6.25C9.68981 6.25 9.02512 6.74696 8.56967 7.23155C8.09944 7.73187 7.73632 8.33997 7.503 8.82077C7.33125 9.17468 7.27451 9.54233 7.26647 9.86669C7.26462 9.94157 7.26222 10.0177 7.25984 10.0934C7.2538 10.2852 7.24784 10.4747 7.25086 10.6363C7.25531 10.8737 7.27814 11.1398 7.37734 11.407C7.59023 11.9806 8.06527 12.3276 8.65784 12.656C9.28595 13.0041 9.70958 13.2138 10.0577 13.3293C10.4375 13.4554 10.7099 13.4629 10.9773 13.4633C10.9861 13.466 11.0066 13.4731 11.0376 13.4903C11.097 13.5231 11.164 13.5762 11.2199 13.6471C11.3163 13.7696 11.399 13.9644 11.303 14.2845C10.9923 15.3201 11.154 16.7495 11.5772 17.784C11.7882 18.2997 12.1112 18.8362 12.5897 19.1553C12.8419 19.3234 13.1466 19.4362 13.49 19.4336C13.8323 19.4309 14.1522 19.3141 14.4374 19.124C15.8315 18.1946 16.3752 16.4091 16.6572 15.0976C16.7542 14.6468 16.8307 14.192 16.893 13.8222C16.9224 13.6476 16.9486 13.4919 16.9722 13.3644C16.9906 13.2656 17.0069 13.1857 17.0214 13.1219C17.1065 13.0782 17.1764 13.0309 17.2281 12.9933C17.384 12.8799 17.5288 12.7378 17.6541 12.6003C17.9072 12.3227 18.1564 11.9791 18.3545 11.6822C18.4884 11.4815 18.6286 11.209 18.6807 10.9002C18.7353 10.576 18.6962 10.1606 18.3889 9.81128C18.0781 9.458 17.6105 9.25 17.0214 9.25C16.9324 9.25 16.7492 9.1932 16.4831 8.99C16.2343 8.79991 15.9962 8.54526 15.8155 8.31635C15.7966 8.29248 15.7714 8.24059 15.7714 8.15139C15.7714 7.10128 14.9201 6.25 13.87 6.25H10.5214ZM8.85249 9.47565C9.04481 9.07933 9.32952 8.61332 9.6627 8.25882C10.0107 7.88859 10.3049 7.75 10.5214 7.75H13.87C14.0917 7.75 14.2714 7.92971 14.2714 8.15139C14.2714 8.51681 14.3754 8.91304 14.6383 9.24596C14.8691 9.53827 15.1942 9.89305 15.5727 10.1821C15.9339 10.458 16.4422 10.75 17.0214 10.75C17.0801 10.75 17.1252 10.7549 17.159 10.7613C17.1446 10.7895 17.127 10.8193 17.1067 10.8498C16.9274 11.1186 16.7258 11.3921 16.5454 11.59C16.4683 11.6746 16.4083 11.7307 16.3669 11.764C16.1043 11.8127 15.9322 11.9777 15.846 12.0873C15.7469 12.2133 15.6902 12.3497 15.657 12.4413C15.5882 12.6315 15.5387 12.8682 15.4975 13.0905C15.4653 13.2635 15.4353 13.443 15.4037 13.6311C15.3452 13.9806 15.2816 14.3599 15.1908 14.7822C14.9079 16.0974 14.4516 17.3118 13.6053 17.876C13.5595 17.9065 13.5267 17.9207 13.5073 17.9273C13.4887 17.9335 13.4785 17.9336 13.4785 17.9336C13.4785 17.9336 13.4746 17.9336 13.4682 17.9316C13.461 17.9292 13.4455 17.923 13.4218 17.9072C13.3066 17.8304 13.1296 17.617 12.9655 17.216C12.6387 16.4172 12.5504 15.3465 12.7397 14.7155C12.9826 13.9061 12.783 13.2076 12.3983 12.7191C12.0535 12.2812 11.5134 11.9633 11 11.9633C10.7748 11.9633 10.6901 11.9588 10.5302 11.9057C10.3279 11.8385 10.0122 11.6916 9.38489 11.344C8.84215 11.0432 8.79603 10.9187 8.78361 10.8851C8.77036 10.8494 8.75379 10.7787 8.7506 10.6082C8.74831 10.4858 8.75243 10.3558 8.7578 10.1863C8.76044 10.103 8.76338 10.0101 8.76601 9.90387C8.77058 9.7195 8.80207 9.57955 8.85249 9.47565ZM16.3227 11.7951C16.3227 11.7951 16.3266 11.7922 16.3341 11.7884C16.3264 11.7936 16.3227 11.7951 16.3227 11.7951Z" fill="white"/>
<path fill-rule="evenodd" clip-rule="evenodd" d="M18.8776 14.2956C19.2116 14.4177 19.4063 14.7524 19.3647 15.0908C19.4259 15.1915 19.5378 15.4086 19.5125 15.6938C19.4836 16.0189 19.2965 16.2518 19.1504 16.3979C19.0057 16.5426 18.9009 16.6935 18.8299 16.8207C18.7946 16.884 18.769 16.9391 18.7517 16.9812C18.7368 17.0177 18.7306 17.0386 18.7294 17.0426C18.6326 17.4454 18.2276 17.6936 17.8249 17.5969C17.4221 17.5002 17.174 17.0952 17.2707 16.6925C17.3332 16.4325 17.5283 15.9791 17.9046 15.5378C17.9007 15.5272 17.897 15.5164 17.8934 15.5054C17.8139 15.2631 17.8202 15.0037 17.9157 14.7425C18.0579 14.3534 18.4886 14.1534 18.8776 14.2956Z" fill="white"/>
<path fill-rule="evenodd" clip-rule="evenodd" d="M24 12C24 17.5228 19.5228 22 14 22C8.47715 22 4 17.5228 4 12C4 6.47715 8.47715 2 14 2C19.5228 2 24 6.47715 24 12ZM22.5 12C22.5 16.6944 18.6944 20.5 14 20.5C12.3027 20.5 10.7215 20.0025 9.39442 19.1453C9.70685 17.7933 9.37743 16.3369 8.71157 15.1867C8.03194 14.0128 6.90662 13.0047 5.53636 12.7915C5.5123 12.5309 5.5 12.2669 5.5 12C5.5 8.46008 7.66393 5.42558 10.7412 4.14712L10.7215 4.19636C11.3456 4.44601 12.2182 4.63373 13.0413 4.80884L13.1435 4.83059C13.9676 5.00579 14.7689 5.17616 15.4182 5.39082C15.9014 5.55056 16.4504 5.98663 17.1655 6.55923L17.189 6.57811C17.819 7.0826 18.6108 7.71671 19.433 7.94095L21.785 8.5824C22.2448 9.62822 22.5 10.7843 22.5 12ZM7.41343 15.9383C7.79213 16.5924 8.00414 17.3307 8.01239 18.0331C7.01884 17.047 6.26754 15.8172 5.85564 14.4408C6.44654 14.7033 7.00083 15.2256 7.41343 15.9383ZM20.6629 6.72157C19.1241 4.78183 16.7562 3.5296 14.0948 3.50052C14.7109 3.63541 15.3408 3.78539 15.8891 3.96664C16.6427 4.21579 17.3857 4.81239 17.9933 5.30033L18.103 5.38834C18.8111 5.95534 19.3568 6.36537 19.8277 6.4938L20.6629 6.72157Z" fill="white"/>
</g>
<defs>
<filter id="filter0_d_27_112" x="-2" y="0" width="32" height="32" filterUnits="userSpaceOnUse" color-interpolation-filters="sRGB">
<feFlood flood-opacity="0" result="BackgroundImageFix"/>
<feColorMatrix in="SourceAlpha" type="matrix" values="0 0 0 0 0 0 0 0 0 0 0 0 0 0 0 0 0 0 127 0" result="hardAlpha"/>
<feOffset dy="4"/>
<feGaussianBlur stdDeviation="2"/>
<feComposite in2="hardAlpha" operator="out"/>
<feColorMatrix type="matrix" values="0 0 0 0 0 0 0 0 0 0 0 0 0 0 0 0 0 0 0.25 0"/>
<feBlend mode="normal" in2="BackgroundImageFix" result="effect1_dropShadow_27_112"/>
<feBlend mode="normal" in="SourceGraphic" in2="effect1_dropShadow_27_112" result="shape"/>
</filter>
</defs>
</svg>
